<?xml version="1.0" standalone="no"?><!DOCTYPE svg PUBLIC "-//W3C//DTD SVG 1.1//EN" "http://www.w3.org/Graphics/SVG/1.1/DTD/svg11.dtd"><svg t="1636533832544" class="icon" viewBox="0 0 1024 1024" version="1.1" xmlns="http://www.w3.org/2000/svg" p-id="1493" width="48" height="48" xmlns:xlink="http://www.w3.org/1999/xlink"><defs><style type="text/css"></style></defs><path d="M834 624.1c-15.2 0-27.6 12.4-27.6 27.6v253.7h-661V511.1h411.3c15.2 0 27.6-12.4 27.6-27.6 0-15.2-12.4-27.6-27.6-27.6H250.2V322.3c0-111.9 91-202.9 203-202.9h41c111.9 0 202.9 91 202.9 202.9v21.4h0.1c0.9 14.4 12.9 25.8 27.5 25.8 15.2 0 27.6-12.3 27.6-27.6 0-0.7 0-1.4-0.1-2.1v-17.6c0-142-116.1-258.1-258.1-258.1h-41c-142 0-258.1 116.1-258.1 258.1v133.6h-77.2c-15.2 0-27.6 12.4-27.6 27.6V934.5c0 15.2 12.4 27.6 27.6 27.6 3.3 0 6.5-0.6 9.5-1.7h697.2c3 1.1 6.1 1.7 9.5 1.7 15.2 0 27.6-12.4 27.6-27.6V651.6c-0.1-15.1-12.5-27.5-27.6-27.5z" p-id="1494" fill="#707070"></path><path d="M907.6 355.6c-10.7-10.7-28.3-10.7-39 0L483.9 740.2c-10.7 10.7-10.7 28.3 0 39s28.3 10.7 39 0l384.6-384.6c10.8-10.8 10.8-28.3 0.1-39z" p-id="1495" fill="#707070"></path></svg>