<?xml version="1.0" standalone="no"?><!DOCTYPE svg PUBLIC "-//W3C//DTD SVG 1.1//EN" "http://www.w3.org/Graphics/SVG/1.1/DTD/svg11.dtd"><svg t="1636533878781" class="icon" viewBox="0 0 1024 1024" version="1.1" xmlns="http://www.w3.org/2000/svg" p-id="2077" width="48" height="48" xmlns:xlink="http://www.w3.org/1999/xlink"><defs><style type="text/css"></style></defs><path d="M930 513.9v-0.3c0-0.4 0.1-0.7 0.1-1.1v-0.4-1.4-1.4-0.4c0-0.4 0-0.7-0.1-1.1v-0.3c0-0.4-0.1-0.8-0.2-1.2v-0.1c-0.9-5.7-3.5-11.3-7.9-15.7L765.1 333.9c-11-11-29-11-40 0s-11 29 0 40l108.5 108.5H428.1c-15.6 0-28.3 12.7-28.3 28.3 0 15.6 12.7 28.3 28.3 28.3h405.5L725.1 647.6c-11 11-11 29 0 40s29 11 40 0L922 530.8c4.4-4.4 7-9.9 7.9-15.7v-0.1c0.1-0.3 0.1-0.7 0.1-1.1z" p-id="2078" fill="#707070"></path><path d="M813.5 902.9h-657V118.6h657c15.6 0 28.3-12.7 28.3-28.3 0-15.6-12.7-28.3-28.3-28.3H128.2c-7.3 0-14 2.8-19 7.4-0.3 0.3-0.7 0.6-1 0.9-1.3 1.3-2.4 2.7-3.5 4.2-0.5 0.8-1 1.5-1.4 2.3-2.2 4-3.4 8.6-3.4 13.5v841c0 1.9 0.2 3.8 0.6 5.7 0.2 0.9 0.4 1.8 0.7 2.7 0.1 0.4 0.3 0.9 0.4 1.3 4 10.8 14.4 18.6 26.6 18.6h685.3c15.6 0 28.3-12.7 28.3-28.3 0-15.6-12.8-28.4-28.3-28.4z" p-id="2079" fill="#707070"></path></svg>